<svg width="60" height="60" viewBox="0 0 60 60" fill="none" xmlns="http://www.w3.org/2000/svg">
<rect width="60" height="60" rx="20" fill="url(#paint0_linear)"/>
<path d="M42.8996 19.7961C42.46 22.5574 42.0318 25.2511 41.6148 27.9447C41.5584 28.3279 41.4232 28.4181 41.0512 28.4068C38.9887 28.3842 36.915 28.4181 34.8525 28.3843C34.3566 28.373 34.2326 28.5082 34.2326 29.0154C34.2439 37.998 34.2439 46.9693 34.2551 55.9519C34.2551 56.3576 34.21 56.5267 33.7367 56.5154C30.4682 56.4929 27.1998 56.4929 23.9314 56.5154C23.5369 56.5154 23.4355 56.4027 23.4355 56.0082C23.4467 46.958 23.4355 37.8965 23.458 28.8463C23.458 28.4631 23.3678 28.3843 23.0072 28.3843C21.1475 28.3955 19.2879 28.3842 17.4283 28.4068C17.0676 28.4068 17 28.3054 17 27.9785C17.0113 25.4088 17.0225 22.8279 17 20.2582C17 19.8299 17.1578 19.7849 17.5184 19.7849C19.3443 19.7961 21.1588 19.7849 22.9846 19.7961C23.3115 19.7961 23.458 19.7849 23.458 19.3566C23.4242 17.125 23.3678 14.8935 23.5482 12.6619C23.751 10.1261 24.3596 7.72544 26.1066 5.7531C27.4703 4.22031 29.2285 3.42011 31.167 2.94675C32.6096 2.59736 34.0861 2.49593 35.5625 2.48466C37.8391 2.48466 40.1045 2.49593 42.3811 2.47339C42.7756 2.47339 42.9221 2.52974 42.9221 2.98056C42.8996 5.53896 42.8996 8.08609 42.9221 10.6445C42.9221 11.0953 42.7756 11.1517 42.3811 11.1517C40.7131 11.1291 39.0338 11.1404 37.3658 11.1629C36.96 11.1629 36.543 11.208 36.1373 11.3095C34.9314 11.6025 34.3904 12.29 34.2889 13.7213C34.1537 15.6373 34.2664 17.5533 34.2326 19.458C34.2213 19.875 34.4918 19.7849 34.7172 19.7849C37.2193 19.7849 39.71 19.7849 42.2121 19.7849C42.4262 19.7961 42.6291 19.7961 42.8996 19.7961Z" fill="white"/>
<rect y="2" width="60" height="58" rx="20" fill="url(#paint1_linear)"/>
<path d="M42.8649 21.1489C42.426 23.8097 41.9983 26.4054 41.5818 29.0011C41.5255 29.3704 41.3905 29.4573 41.019 29.4464C38.9593 29.4247 36.8883 29.4573 34.8286 29.4247C34.3333 29.4138 34.2095 29.5442 34.2095 30.0329C34.2208 38.6888 34.2208 47.3339 34.232 55.9899C34.232 56.3808 34.187 56.5438 33.7143 56.5329C30.4502 56.5112 27.1861 56.5112 23.9221 56.5329C23.5281 56.5329 23.4268 56.4243 23.4268 56.0442C23.4381 47.3231 23.4268 38.5911 23.4494 29.87C23.4494 29.5007 23.3593 29.4247 22.9991 29.4247C21.142 29.4356 19.2848 29.4247 17.4277 29.4464C17.0675 29.4464 17 29.3487 17 29.0337C17.0113 26.5575 17.0225 24.0704 17 21.5942C17 21.1815 17.1576 21.138 17.5177 21.138C19.3411 21.1489 21.1532 21.138 22.9766 21.1489C23.303 21.1489 23.4494 21.138 23.4494 20.7253C23.4156 18.5749 23.3593 16.4245 23.5394 14.2741C23.742 11.8304 24.3498 9.51712 26.0944 7.61651C27.4563 6.13946 29.2121 5.36835 31.1481 4.9122C32.5887 4.57552 34.0632 4.47778 35.5377 4.46692C37.8113 4.46692 40.0736 4.47778 42.3472 4.45605C42.7411 4.45605 42.8874 4.51036 42.8874 4.94478C42.8649 7.41015 42.8649 9.86466 42.8874 12.33C42.8874 12.7645 42.7411 12.8188 42.3472 12.8188C40.6814 12.797 39.0043 12.8079 37.3385 12.8296C36.9333 12.8296 36.5169 12.8731 36.1117 12.9708C34.9074 13.2532 34.3671 13.9157 34.2658 15.295C34.1307 17.1413 34.2433 18.9876 34.2095 20.8231C34.1983 21.2249 34.4684 21.138 34.6935 21.138C37.1922 21.138 39.6797 21.138 42.1784 21.138C42.3922 21.1489 42.5948 21.1489 42.8649 21.1489Z" fill="white"/>
<defs>
<linearGradient id="paint0_linear" x1="30" y1="0" x2="30" y2="60" gradientUnits="userSpaceOnUse">
<stop stop-color="#240074"/>
<stop offset="1" stop-color="#6000EA"/>
</linearGradient>
<linearGradient id="paint1_linear" x1="30" y1="2" x2="30" y2="60" gradientUnits="userSpaceOnUse">
<stop stop-color="#240074"/>
<stop offset="1" stop-color="#6000EA"/>
</linearGradient>
</defs>
</svg>
