<svg width="60" height="60" viewBox="0 0 60 60" fill="none" xmlns="http://www.w3.org/2000/svg">
<rect width="60" height="60" rx="20" fill="url(#paint0_linear)"/>
<path d="M42.8996 19.7961C42.46 22.5574 42.0318 25.2511 41.6148 27.9447C41.5584 28.3279 41.4232 28.4181 41.0512 28.4068C38.9887 28.3842 36.915 28.4181 34.8525 28.3843C34.3566 28.373 34.2326 28.5082 34.2326 29.0154C34.2439 37.998 34.2439 46.9693 34.2551 55.9519C34.2551 56.3576 34.21 56.5267 33.7367 56.5154C30.4682 56.4929 27.1998 56.4929 23.9314 56.5154C23.5369 56.5154 23.4355 56.4027 23.4355 56.0082C23.4467 46.958 23.4355 37.8965 23.458 28.8463C23.458 28.4631 23.3678 28.3843 23.0072 28.3843C21.1475 28.3955 19.2879 28.3842 17.4283 28.4068C17.0676 28.4068 17 28.3054 17 27.9785C17.0113 25.4088 17.0225 22.8279 17 20.2582C17 19.8299 17.1578 19.7849 17.5184 19.7849C19.3443 19.7961 21.1588 19.7849 22.9846 19.7961C23.3115 19.7961 23.458 19.7849 23.458 19.3566C23.4242 17.125 23.3678 14.8935 23.5482 12.6619C23.751 10.1261 24.3596 7.72544 26.1066 5.7531C27.4703 4.22031 29.2285 3.42011 31.167 2.94675C32.6096 2.59736 34.0861 2.49593 35.5625 2.48466C37.8391 2.48466 40.1045 2.49593 42.3811 2.47339C42.7756 2.47339 42.9221 2.52974 42.9221 2.98056C42.8996 5.53896 42.8996 8.08609 42.9221 10.6445C42.9221 11.0953 42.7756 11.1517 42.3811 11.1517C40.7131 11.1291 39.0338 11.1404 37.3658 11.1629C36.96 11.1629 36.543 11.208 36.1373 11.3095C34.9314 11.6025 34.3904 12.29 34.2889 13.7213C34.1537 15.6373 34.2664 17.5533 34.2326 19.458C34.2213 19.875 34.4918 19.7849 34.7172 19.7849C37.2193 19.7849 39.71 19.7849 42.2121 19.7849C42.4262 19.7961 42.6291 19.7961 42.8996 19.7961Z" fill="white"/>
<rect y="2" width="60" height="58" rx="20" fill="url(#paint1_linear)"/>
<g clip-path="url(#clip0)">
<path d="M41.6393 5H18.3607C10.427 5 4 11.427 4 19.3607V42.67C4 50.573 10.427 57.0307 18.3607 57.0307H41.67C49.573 57.0307 56.0307 50.6038 56.0307 42.67V19.3607C56 11.427 49.5423 5 41.6393 5ZM51.3873 42.6393C51.3873 48.0207 47.0207 52.3873 41.6393 52.3873H18.3607C12.9793 52.3873 8.61265 48.0207 8.61265 42.6393V19.3607C8.61265 13.9793 12.9793 9.61265 18.3607 9.61265H41.67C47.0514 9.61265 51.4181 13.9793 51.4181 19.3607L51.3873 42.6393Z" fill="white"/>
<path d="M29.9846 17.6079C22.6044 17.6079 16.6079 23.6044 16.6079 30.9846C16.6079 38.3649 22.6044 44.3921 30.0154 44.3921C37.4264 44.3921 43.4228 38.3956 43.4228 30.9846C43.3921 23.6044 37.3956 17.6079 29.9846 17.6079ZM29.9846 39.7794C25.1567 39.7794 21.1898 35.8433 21.1898 30.9846C21.2206 26.1567 25.1567 22.2206 29.9846 22.2206C34.8125 22.2206 38.7794 26.1567 38.7794 31.0154C38.7794 35.8433 34.8433 39.7794 29.9846 39.7794Z" fill="white"/>
<path d="M43.9456 13.7026C43.0538 13.7026 42.1928 14.0716 41.547 14.6867C40.9012 15.3017 40.563 16.1935 40.563 17.0853C40.563 17.977 40.932 18.8381 41.547 19.4838C42.162 20.0989 43.0538 20.4679 43.9456 20.4679C44.8374 20.4679 45.6984 20.0989 46.3442 19.4838C46.9899 18.8688 47.3282 17.977 47.3282 17.0853C47.3282 16.1935 46.9592 15.3324 46.3442 14.6867C45.7292 14.0409 44.8374 13.7026 43.9456 13.7026Z" fill="white"/>
</g>
<defs>
<linearGradient id="paint0_linear" x1="30" y1="0" x2="30" y2="60" gradientUnits="userSpaceOnUse">
<stop stop-color="#240074"/>
<stop offset="1" stop-color="#6000EA"/>
</linearGradient>
<linearGradient id="paint1_linear" x1="30" y1="2" x2="30" y2="60" gradientUnits="userSpaceOnUse">
<stop stop-color="#240074"/>
<stop offset="1" stop-color="#6000EA"/>
</linearGradient>
<clipPath id="clip0">
<rect width="52" height="52" fill="white" transform="translate(4 5)"/>
</clipPath>
</defs>
</svg>
