<svg width="216" height="41" viewBox="0 0 216 41" fill="none" xmlns="http://www.w3.org/2000/svg">
<path d="M8.388 35.248H16.452V40H2.232V14.728H8.388V35.248ZM28.5323 40.288C26.5643 40.288 24.7883 39.868 23.2043 39.028C21.6443 38.188 20.4083 36.988 19.4963 35.428C18.6083 33.868 18.1643 32.044 18.1643 29.956C18.1643 27.892 18.6203 26.08 19.5322 24.52C20.4443 22.936 21.6923 21.724 23.2763 20.884C24.8603 20.044 26.6363 19.624 28.6043 19.624C30.5723 19.624 32.3483 20.044 33.9323 20.884C35.5163 21.724 36.7643 22.936 37.6763 24.52C38.5883 26.08 39.0443 27.892 39.0443 29.956C39.0443 32.02 38.5763 33.844 37.6403 35.428C36.7283 36.988 35.4683 38.188 33.8603 39.028C32.2763 39.868 30.5003 40.288 28.5323 40.288ZM28.5323 34.96C29.7083 34.96 30.7043 34.528 31.5203 33.664C32.3603 32.8 32.7803 31.564 32.7803 29.956C32.7803 28.348 32.3723 27.112 31.5563 26.248C30.7643 25.384 29.7803 24.952 28.6043 24.952C27.4043 24.952 26.4083 25.384 25.6163 26.248C24.8243 27.088 24.4283 28.324 24.4283 29.956C24.4283 31.564 24.8123 32.8 25.5803 33.664C26.3723 34.528 27.3563 34.96 28.5323 34.96ZM41.0861 29.956C41.0861 27.868 41.5061 26.044 42.3461 24.484C43.2101 22.924 44.3981 21.724 45.9101 20.884C47.4461 20.044 49.1981 19.624 51.1661 19.624C53.6861 19.624 55.7861 20.284 57.4661 21.604C59.1701 22.924 60.2861 24.784 60.8141 27.184H54.2621C53.7101 25.648 52.6421 24.88 51.0581 24.88C49.9301 24.88 49.0301 25.324 48.3581 26.212C47.6861 27.076 47.3501 28.324 47.3501 29.956C47.3501 31.588 47.6861 32.848 48.3581 33.736C49.0301 34.6 49.9301 35.032 51.0581 35.032C52.6421 35.032 53.7101 34.264 54.2621 32.728H60.8141C60.2861 35.08 59.1701 36.928 57.4661 38.272C55.7621 39.616 53.6621 40.288 51.1661 40.288C49.1981 40.288 47.4461 39.868 45.9101 39.028C44.3981 38.188 43.2101 36.988 42.3461 35.428C41.5061 33.868 41.0861 32.044 41.0861 29.956ZM62.883 29.92C62.883 27.856 63.267 26.044 64.035 24.484C64.827 22.924 65.895 21.724 67.239 20.884C68.583 20.044 70.083 19.624 71.739 19.624C73.155 19.624 74.391 19.912 75.447 20.488C76.527 21.064 77.355 21.82 77.931 22.756V19.912H84.087V40H77.931V37.156C77.331 38.092 76.491 38.848 75.411 39.424C74.355 40 73.119 40.288 71.703 40.288C70.071 40.288 68.583 39.868 67.239 39.028C65.895 38.164 64.827 36.952 64.035 35.392C63.267 33.808 62.883 31.984 62.883 29.92ZM77.931 29.956C77.931 28.42 77.499 27.208 76.635 26.32C75.795 25.432 74.763 24.988 73.539 24.988C72.315 24.988 71.271 25.432 70.407 26.32C69.567 27.184 69.147 28.384 69.147 29.92C69.147 31.456 69.567 32.68 70.407 33.592C71.271 34.48 72.315 34.924 73.539 34.924C74.763 34.924 75.795 34.48 76.635 33.592C77.499 32.704 77.931 31.492 77.931 29.956ZM94.6966 13.36V40H88.5406V13.36H94.6966ZM124.394 15.16V40H121.874V20.164L113.018 40H111.182L102.326 20.236V40H99.8058V15.16H102.47L112.082 36.688L121.694 15.16H124.394ZM128.958 30.136C128.958 28.12 129.354 26.356 130.146 24.844C130.962 23.308 132.078 22.132 133.494 21.316C134.934 20.476 136.554 20.056 138.354 20.056C140.226 20.056 141.834 20.488 143.178 21.352C144.546 22.216 145.53 23.32 146.13 24.664V20.344H148.65V40H146.13V35.644C145.506 36.988 144.51 38.104 143.142 38.992C141.798 39.856 140.19 40.288 138.318 40.288C136.542 40.288 134.934 39.868 133.494 39.028C132.078 38.188 130.962 37 130.146 35.464C129.354 33.928 128.958 32.152 128.958 30.136ZM146.13 30.172C146.13 28.588 145.806 27.196 145.158 25.996C144.51 24.796 143.622 23.872 142.494 23.224C141.39 22.576 140.166 22.252 138.822 22.252C137.43 22.252 136.182 22.564 135.078 23.188C133.974 23.812 133.098 24.724 132.45 25.924C131.826 27.1 131.514 28.504 131.514 30.136C131.514 31.744 131.826 33.16 132.45 34.384C133.098 35.584 133.974 36.508 135.078 37.156C136.182 37.78 137.43 38.092 138.822 38.092C140.166 38.092 141.39 37.768 142.494 37.12C143.622 36.472 144.51 35.548 145.158 34.348C145.806 33.148 146.13 31.756 146.13 30.172ZM156.923 23.836C157.475 22.612 158.315 21.664 159.443 20.992C160.595 20.32 161.999 19.984 163.655 19.984V22.612H162.971C161.147 22.612 159.683 23.104 158.579 24.088C157.475 25.072 156.923 26.716 156.923 29.02V40H154.403V20.344H156.923V23.836ZM178.066 40L169.966 31.18V40H167.446V13.36H169.966V29.128L177.886 20.344H181.414L172.09 30.136L181.486 40H178.066ZM202.527 29.164C202.527 30.028 202.503 30.688 202.455 31.144H186.147C186.219 32.632 186.579 33.904 187.227 34.96C187.875 36.016 188.727 36.82 189.783 37.372C190.839 37.9 191.991 38.164 193.239 38.164C194.871 38.164 196.239 37.768 197.343 36.976C198.471 36.184 199.215 35.116 199.575 33.772H202.239C201.759 35.692 200.727 37.264 199.143 38.488C197.583 39.688 195.615 40.288 193.239 40.288C191.391 40.288 189.735 39.88 188.271 39.064C186.807 38.224 185.655 37.048 184.815 35.536C183.999 34 183.591 32.212 183.591 30.172C183.591 28.132 183.999 26.344 184.815 24.808C185.631 23.272 186.771 22.096 188.235 21.28C189.699 20.464 191.367 20.056 193.239 20.056C195.111 20.056 196.743 20.464 198.135 21.28C199.551 22.096 200.631 23.2 201.375 24.592C202.143 25.96 202.527 27.484 202.527 29.164ZM199.971 29.092C199.995 27.628 199.695 26.38 199.071 25.348C198.471 24.316 197.643 23.536 196.587 23.008C195.531 22.48 194.379 22.216 193.131 22.216C191.259 22.216 189.663 22.816 188.343 24.016C187.023 25.216 186.291 26.908 186.147 29.092H199.971ZM210.414 22.468V34.672C210.414 35.872 210.642 36.7 211.098 37.156C211.554 37.612 212.358 37.84 213.51 37.84H215.814V40H213.114C211.338 40 210.018 39.592 209.154 38.776C208.29 37.936 207.858 36.568 207.858 34.672V22.468H205.122V20.344H207.858V15.412H210.414V20.344H215.814V22.468H210.414Z" fill="#47A3A6"/>
</svg>
