<svg width="177" height="273" viewBox="0 0 177 273" fill="none" xmlns="http://www.w3.org/2000/svg">
<g clip-path="url(#clip0)">
<path d="M175.4 144.3C170.2 102.2 130.2 72.8 88.5 80.5C59.6 85.8 39 102.4 29.9 130.6C21 158.1 78.8 272.4 78.8 272.4L102.2 258.5C120.8 239.3 139.7 220.5 157.8 201C172.5 185.2 178.1 165.6 175.4 144.3Z" fill="#168C88"/>
<path d="M68.5 154.5C68.5 136.2 83.2 121.5 101.3 121.6C119.4 121.8 133.7 136.2 133.8 154.3C133.9 172.5 119.1 187.4 101 187.3C83 187.1 68.5 172.5 68.5 154.5Z" fill="#080609"/>
<path d="M124.6 154.2C124.7 167 114.2 177.8 101.4 178C88.8 178.2 77.8 167.4 77.7 154.7C77.6 141.8 88 131.2 100.9 131.1C113.8 130.9 124.5 141.3 124.6 154.2Z" fill="white"/>
<path d="M31.1 116.8C31.8 53.4 52.8 2.60001 78.6 2.60001C104.4 2.60001 125.4 53.4 126.1 116.8" stroke="#168C88" stroke-width="4" stroke-miterlimit="10"/>
<path d="M52.1 116.8C52.8 53.4 73.7 2.60001 99.5 2.60001C125.3 2.60001 146.3 53.4 147 116.8" stroke="#168C88" stroke-width="4" stroke-miterlimit="10"/>
<path d="M78.9 272.5C59.6 253.5 41.3 236.3 23.9 218.2C3.70001 197.3 -2.29999 172 6.60001 144.5C15.7 116.3 36.3 99.7 65.2 94.4C106.9 86.7 146.9 116.1 152.1 158.2C154.7 179.5 149.2 199.1 134.5 215C116.4 234.5 97.5 253.3 78.9 272.5Z" fill="#47A3A6"/>
<path d="M78.1 112.1C109.9 112.1 135.4 138.3 133.9 169.5C133.2 184.3 127 196.6 116.5 206.9C104.4 218.8 92.2 230.6 80.1 242.5C78.2 244.4 77.3 244.8 75.2 242.7C63.1 230.6 50.7 218.7 38.6 206.6C21.5 189.7 16.8 167 25.6 145.8C34.4 125.3 54.8 112.1 78.1 112.1Z" fill="white"/>
<path d="M45.1 168.3C45.1 150 59.8 135.3 77.9 135.4C96 135.6 110.3 150 110.4 168.1C110.5 186.3 95.7 201.2 77.6 201.1C59.6 201 45.1 186.3 45.1 168.3Z" fill="#168C88"/>
<path d="M101.2 168C101.3 180.8 90.8 191.6 78 191.8C65.4 192 54.4 181.2 54.3 168.5C54.2 155.6 64.6 145 77.5 144.9C90.4 144.7 101.1 155.1 101.2 168Z" fill="white"/>
</g>
<defs>
<clipPath id="clip0">
<rect width="175.8" height="272.1" fill="white" transform="translate(0.600006)"/>
</clipPath>
</defs>
</svg>
